<svg aria-hidden="true" data-icon="hp_primary" width="14" height="14" xmlns="http://www.w3.org/2000/svg" viewBox="0 0 15 15" class="h-7 w-7 fill-current text-white"><path fill="white" d="M7 0a.748.748 0 00-.43.213A18.543 18.543 0 001.865 6.74c-1.515 4.536 1.357 6.945 4.502 7.23l-.09-.276.358-.48c.148-.198.22-.3.34-.461a4.019 4.019 0 01-4.137-3.541c-.14-2.118 2.231-6.076 3.941-7.4A.649.649 0 017 1.734a.639.639 0 01.22.077c1.236.956 2.812 3.284 3.542 5.304a.798.798 0 01.265-.32c.262-.18.535-.225.723-.225h.305A18.543 18.543 0 007.432.213.751.751 0 007 0zM4.543 6.928a1.223 1.223 0 00-.594.154.978.978 0 00-.449.572c-1 3.277 1.523 4.78 3.857 4.584l.373-.506c-.003-.001-.006 0-.01-.002l-.011-.005-.016-.004a2.589 2.589 0 01-.795-.518l-.066-.05-.018-.026a2.712 2.712 0 01-.527-.854l-.002-.005-.004-.01a3.008 3.008 0 01-.185-1.069c0-.351.058-.703.183-1.04l.006-.034.002-.002c.07-.185.162-.365.274-.535-.76-.317-1.427-.66-2.018-.65z"></path><path fill="white" d="M9.756 6.45a.327.327 0 00-.203.071 12.566 12.566 0 00-.055.047 2.573 2.573 0 01.734.348c-.122-.244-.284-.46-.476-.467z" color="gray" fill-opacity=".497"></path><path fill="white" d="M11.751 7.721h1.547q.096.033.072.112-3.764 5.239-4.45 6.093-.04.087-.168.071h-.988q-.176 0-.208-.096 3.884-5.2 4.155-5.717.04-.065.04-.143 0-.089-.104-.247.017-.073.104-.073zM7.245 9.19q0-.374.112-.663.112-.294.303-.494.199-.208.47-.31.27-.112.59-.112.327 0 .599.111.271.104.463.312.198.2.31.494.112.286.112.662 0 .367-.112.663-.112.286-.312.494-.19.199-.461.31-.272.105-.598.105-.32 0-.59-.104-.272-.112-.471-.312-.191-.208-.303-.494-.112-.295-.112-.663zm2.066 0q0-.255-.048-.455-.04-.199-.12-.334-.071-.143-.183-.216-.112-.08-.24-.08-.134 0-.246.079-.104.073-.184.217-.072.135-.12.334-.04.2-.04.455t.04.455q.048.199.12.342.078.143.182.216.114.071.247.071.13 0 .24-.071t.184-.216q.08-.143.12-.342.048-.2.048-.455zm1.73 3.007q0-.376.112-.663.112-.294.303-.494.199-.208.47-.312.272-.11.59-.11.327 0 .599.111.271.104.463.312.198.2.312.494.11.286.11.662 0 .367-.112.662-.112.286-.312.494-.19.2-.461.312-.272.104-.598.104-.319 0-.59-.104-.272-.112-.471-.312-.191-.208-.303-.494-.112-.295-.112-.663zm2.066-.025q0-.255-.048-.455-.04-.199-.12-.334-.071-.143-.183-.216-.104-.079-.24-.079-.127 0-.238.08-.112.072-.192.215-.072.135-.12.336-.04.198-.04.455 0 .254.04.453.048.2.12.343.08.143.192.215.111.073.239.073.135 0 .239-.073.112-.072.183-.215.08-.143.12-.343.048-.199.048-.455z" aria-label="%" stroke="none" font-size="6.135"></path></svg>