<svg aria-hidden="true" xmlns="http://www.w3.org/2000/svg" viewBox="0 0 15 15" class="h-7 w-7 fill-current text-white"><path fill="white" d="M0 14l3.5-7.764-1.527-4.772L7.255 3.5 14 0l-3.5 7.255 1.527 4.772L7.255 10.5 0 14"></path><path d="M7.045.19a6.756 6.756 0 00-3.326.857l3.613 1.392L10.168.967A6.648 6.648 0 007.045.189zM1.502 3.073A6.812 6.812 0 00.309 6.947c0 .925.189 1.808.529 2.612l1.601-3.555-.937-2.93zm11.63.998l-1.571 3.26 1.076 3.361a6.709 6.709 0 00.496-6.621zm-5.8 7.489l-3.11 1.5c.86.399 1.817.623 2.823.623 1.328 0 2.567-.39 3.613-1.059l-3.326-1.064z" fill="white" opacity=".5" paint-order="stroke markers fill"></path></svg>