<svg aria-hidden="true" xmlns="http://www.w3.org/2000/svg" viewBox="0 0 15 15" className="h-4 w-4 fill-current text-white" data-icon="Atk"><path fill="white" d="M11.53.031a.228.228 0 00-.23.219l.026 1.117-1.928 1.928-1.644-1.643a.228.228 0 00-.322 0l-.73.73a.229.229 0 000 .323l.837.838-7.146 7.154a.451.451 0 00-.135.319 21.172 21.172 0 00-.237 2.953 21.32 21.32 0 002.954-.239.457.457 0 00.312-.136L6.383 10.5a2.843 2.843 0 01-.117-.258l-.002-.006-.002-.01a3.019 3.019 0 01-.186-1.07c0-.352.056-.703.182-1.04l.006-.032.002-.004c.12-.316.296-.618.543-.875.247-.257.55-.454.877-.582A2.7 2.7 0 018.7 6.428a2.72 2.72 0 011.385.373l.353-.354c.183.166.319.308.434.432a.735.735 0 01.133-.115 1.28 1.28 0 01.724-.225h.612a.228.228 0 00-.012-.309l-1.643-1.646 1.932-1.926c1.893.057 1.217.26 1.338-2.4a.228.228 0 00-.228-.227h-2.2z"></path><path d="M11.731 7.69h1.547q.096.033.072.112-3.764 5.239-4.45 6.093-.04.087-.168.071h-.988q-.176 0-.208-.096 3.884-5.2 4.155-5.717.04-.065.04-.143 0-.089-.104-.247.017-.073.104-.073zM7.225 9.159q0-.374.112-.663.112-.294.303-.494.199-.208.47-.31.27-.112.59-.112.327 0 .599.111.271.104.463.312.198.2.31.494.112.286.112.662 0 .367-.112.663-.112.286-.312.494-.19.199-.461.31-.272.105-.598.105-.32 0-.59-.104-.272-.112-.471-.312-.191-.208-.303-.494-.112-.295-.112-.663zm2.066 0q0-.255-.048-.455-.04-.199-.12-.334-.071-.143-.183-.216-.112-.08-.24-.08-.134 0-.246.079-.104.073-.184.217-.072.135-.12.334-.04.2-.04.455t.04.455q.048.199.12.342.078.143.182.216.114.071.247.071.13 0 .24-.071t.184-.216q.08-.143.12-.342.048-.2.048-.455zm1.73 3.007q0-.376.112-.663.112-.294.303-.494.199-.208.47-.312.272-.11.59-.11.327 0 .599.111.271.104.463.312.198.2.312.494.11.286.11.662 0 .367-.112.662-.112.286-.312.494-.19.2-.461.312-.272.104-.598.104-.319 0-.59-.104-.272-.112-.471-.312-.191-.208-.303-.494-.112-.295-.112-.663zm2.066-.025q0-.255-.048-.455-.04-.199-.12-.334-.071-.143-.183-.216-.104-.079-.24-.079-.127 0-.238.08-.112.072-.192.215-.072.135-.12.336-.04.198-.04.455 0 .254.04.453.048.2.12.343.08.143.192.215.111.073.239.073.135 0 .239-.073.112-.072.183-.215.08-.143.12-.343.048-.199.048-.455z" fill="white" stroke="none" aria-label="%" font-size="6.135" stroke-width="1.846"></path></svg>