<svg aria-hidden="true" data-icon="Def" xmlns="http://www.w3.org/2000/svg" viewBox="0 0 15 15" class="h-7 w-7 fill-current text-white"><path fill="white" d="M7 0C2.498 0 1.142.285.734.457a.291.291 0 00-.175.27v7.441a.868.868 0 00.125.451c1.353 2.228 4.301 4.196 5.632 5.02l.319-.426c.476-.637.767-1.035 1.095-1.48-.003-.002-.006-.001-.01-.003l-.011-.005-.016-.004A2.6 2.6 0 017 11.297v.672c.059.013-3.56-2.018-4.824-4.37V1.565s0-.45 4.824-.45v5.962c.21-.18.45-.322.705-.422a2.7 2.7 0 011.016-.195c.347 0 .695.062 1.023.195.329.129.622.33.861.582l.002.002c.027.027.034.066.059.094.082-.193.15-.39.361-.537.262-.18.535-.225.723-.225h1.69V.727a.291.291 0 00-.175-.27C12.858.285 11.502 0 7 0z"></path><path fill="white" d="M11.751 7.721h1.547q.096.033.072.112-3.764 5.239-4.45 6.093-.04.087-.168.071h-.988q-.176 0-.208-.096 3.884-5.2 4.155-5.717.04-.065.04-.143 0-.089-.104-.247.017-.073.104-.073zM7.245 9.19q0-.374.112-.663.112-.294.303-.494.199-.208.47-.31.27-.112.59-.112.327 0 .599.111.271.104.463.312.198.2.31.494.112.286.112.662 0 .367-.112.663-.112.286-.312.494-.19.199-.461.31-.272.105-.598.105-.32 0-.59-.104-.272-.112-.471-.312-.191-.208-.303-.494-.112-.295-.112-.663zm2.066 0q0-.255-.048-.455-.04-.199-.12-.334-.071-.143-.183-.216-.112-.08-.24-.08-.134 0-.246.079-.104.073-.184.217-.072.135-.12.334-.04.2-.04.455t.04.455q.048.199.12.342.078.143.182.216.114.071.247.071.13 0 .24-.071t.184-.216q.08-.143.12-.342.048-.2.048-.455zm1.73 3.007q0-.376.112-.663.112-.294.303-.494.199-.208.47-.312.272-.11.59-.11.327 0 .599.111.271.104.463.312.198.2.312.494.11.286.11.662 0 .367-.112.662-.112.286-.312.494-.19.2-.461.312-.272.104-.598.104-.319 0-.59-.104-.272-.112-.471-.312-.191-.208-.303-.494-.112-.295-.112-.663zm2.066-.025q0-.255-.048-.455-.04-.199-.12-.334-.071-.143-.183-.216-.104-.079-.24-.079-.127 0-.238.08-.112.072-.192.215-.072.135-.12.336-.04.198-.04.455 0 .254.04.453.048.2.12.343.08.143.192.215.111.073.239.073.135 0 .239-.073.112-.072.183-.215.08-.143.12-.343.048-.199.048-.455z" stroke="none" aria-label="%" font-size="6.135" stroke-width="1.846"></path></svg>